<svg xmlns="http://www.w3.org/2000/svg" xmlns:xlink="http://www.w3.org/1999/xlink" width="1024" zoomAndPan="magnify" viewBox="0 0 768 576" height="768" preserveAspectRatio="xMidYMid meet" version="1.2"><defs><clipPath id="183be1e856"><path d="M 288.734375 236.859375 L 328.253906 236.859375 L 328.253906 320.378906 L 288.734375 320.378906 Z M 288.734375 236.859375 "/></clipPath><clipPath id="c278865b9b"><path d="M 290.984375 236.859375 L 326.003906 236.859375 C 326.601562 236.859375 327.171875 237.097656 327.59375 237.519531 C 328.015625 237.941406 328.253906 238.511719 328.253906 239.109375 L 328.253906 318.007812 C 328.253906 318.601562 328.015625 319.175781 327.59375 319.597656 C 327.171875 320.019531 326.601562 320.257812 326.003906 320.257812 L 290.984375 320.257812 C 290.386719 320.257812 289.8125 320.019531 289.390625 319.597656 C 288.96875 319.175781 288.734375 318.601562 288.734375 318.007812 L 288.734375 239.109375 C 288.734375 238.511719 288.96875 237.941406 289.390625 237.519531 C 289.8125 237.097656 290.386719 236.859375 290.984375 236.859375 Z M 290.984375 236.859375 "/></clipPath><clipPath id="f455d8a96f"><path d="M 331.867188 236.859375 L 357.742188 236.859375 L 357.742188 261.214844 L 331.867188 261.214844 Z M 331.867188 236.859375 "/></clipPath><clipPath id="662ad09598"><path d="M 337.867188 236.859375 L 351.730469 236.859375 C 353.320312 236.859375 354.847656 237.492188 355.972656 238.617188 C 357.097656 239.742188 357.730469 241.269531 357.730469 242.859375 L 357.730469 255.214844 C 357.730469 256.804688 357.097656 258.332031 355.972656 259.457031 C 354.847656 260.582031 353.320312 261.214844 351.730469 261.214844 L 337.867188 261.214844 C 336.273438 261.214844 334.75 260.582031 333.625 259.457031 C 332.5 258.332031 331.867188 256.804688 331.867188 255.214844 L 331.867188 242.859375 C 331.867188 241.269531 332.5 239.742188 333.625 238.617188 C 334.75 237.492188 336.273438 236.859375 337.867188 236.859375 Z M 337.867188 236.859375 "/></clipPath><clipPath id="84833b35cd"><path d="M 331.867188 266.382812 L 357.742188 266.382812 L 357.742188 290.734375 L 331.867188 290.734375 Z M 331.867188 266.382812 "/></clipPath><clipPath id="a9d133579e"><path d="M 337.867188 266.382812 L 351.730469 266.382812 C 353.320312 266.382812 354.847656 267.011719 355.972656 268.140625 C 357.097656 269.265625 357.730469 270.789062 357.730469 272.382812 L 357.730469 284.734375 C 357.730469 286.328125 357.097656 287.851562 355.972656 288.976562 C 354.847656 290.101562 353.320312 290.734375 351.730469 290.734375 L 337.867188 290.734375 C 336.273438 290.734375 334.75 290.101562 333.625 288.976562 C 332.5 287.851562 331.867188 286.328125 331.867188 284.734375 L 331.867188 272.382812 C 331.867188 270.789062 332.5 269.265625 333.625 268.140625 C 334.75 267.011719 336.273438 266.382812 337.867188 266.382812 Z M 337.867188 266.382812 "/></clipPath><clipPath id="8747df3f09"><path d="M 331.867188 295.902344 L 357.742188 295.902344 L 357.742188 320.257812 L 331.867188 320.257812 Z M 331.867188 295.902344 "/></clipPath><clipPath id="42838143ac"><path d="M 337.867188 295.902344 L 351.730469 295.902344 C 353.320312 295.902344 354.847656 296.535156 355.972656 297.660156 C 357.097656 298.785156 357.730469 300.3125 357.730469 301.902344 L 357.730469 314.257812 C 357.730469 315.847656 357.097656 317.375 355.972656 318.5 C 354.847656 319.625 353.320312 320.257812 351.730469 320.257812 L 337.867188 320.257812 C 336.273438 320.257812 334.75 319.625 333.625 318.5 C 332.5 317.375 331.867188 315.847656 331.867188 314.257812 L 331.867188 301.902344 C 331.867188 300.3125 332.5 298.785156 333.625 297.660156 C 334.75 296.535156 336.273438 295.902344 337.867188 295.902344 Z M 337.867188 295.902344 "/></clipPath></defs><g id="4e8dd3e956"><g style="fill:#000000;fill-opacity:1;"><g transform="translate(61.978533, 320.625007)"><path style="stroke:none" d="M 42.796875 -45.90625 C 42.796875 -45.820312 42.796875 -45.660156 42.796875 -45.421875 L 42.796875 -3.9375 C 42.796875 -2.90625 42.414062 -1.988281 41.65625 -1.1875 C 40.894531 -0.394531 39.957031 0 38.84375 0 L 6.9375 0 C 5.894531 0 4.972656 -0.394531 4.171875 -1.1875 C 3.378906 -1.988281 2.984375 -2.90625 2.984375 -3.9375 L 2.984375 -81.515625 C 2.984375 -82.953125 3.503906 -83.671875 4.546875 -83.671875 C 9.722656 -83.429688 14.5625 -82.316406 19.0625 -80.328125 C 23.5625 -78.335938 27.546875 -75.628906 31.015625 -72.203125 C 34.484375 -68.773438 37.253906 -64.804688 39.328125 -60.296875 C 41.398438 -55.796875 42.554688 -51 42.796875 -45.90625 Z M 86.65625 -45.90625 C 86.65625 -45.820312 86.65625 -45.660156 86.65625 -45.421875 L 86.65625 -3.9375 C 86.65625 -2.90625 86.273438 -1.988281 85.515625 -1.1875 C 84.765625 -0.394531 83.832031 0 82.71875 0 L 50.796875 0 C 49.679688 0 48.742188 -0.394531 47.984375 -1.1875 C 47.234375 -1.988281 46.859375 -2.90625 46.859375 -3.9375 L 46.859375 -81.515625 C 46.859375 -82.953125 47.375 -83.671875 48.40625 -83.671875 C 53.582031 -83.429688 58.421875 -82.316406 62.921875 -80.328125 C 67.429688 -78.335938 71.414062 -75.628906 74.875 -72.203125 C 78.34375 -68.773438 81.113281 -64.804688 83.1875 -60.296875 C 85.257812 -55.796875 86.414062 -51 86.65625 -45.90625 Z M 130.53125 -45.90625 C 130.53125 -45.820312 130.53125 -45.660156 130.53125 -45.421875 L 130.53125 -3.9375 C 130.53125 -2.90625 130.128906 -1.988281 129.328125 -1.1875 C 128.535156 -0.394531 127.617188 0 126.578125 0 L 94.671875 0 C 93.554688 0 92.617188 -0.394531 91.859375 -1.1875 C 91.097656 -1.988281 90.71875 -2.90625 90.71875 -3.9375 L 90.71875 -81.515625 C 90.71875 -82.953125 91.238281 -83.671875 92.28125 -83.671875 C 97.457031 -83.429688 102.296875 -82.316406 106.796875 -80.328125 C 111.296875 -78.335938 115.28125 -75.628906 118.75 -72.203125 C 122.21875 -68.773438 124.988281 -64.804688 127.0625 -60.296875 C 129.132812 -55.796875 130.289062 -51 130.53125 -45.90625 Z M 130.53125 -45.90625 "/></g></g><g style="fill:#000000;fill-opacity:1;"><g transform="translate(196.451188, 320.625007)"><path style="stroke:none" d="M 22.953125 -39.921875 C 26.617188 -39.921875 29.941406 -39.023438 32.921875 -37.234375 C 35.910156 -35.441406 38.300781 -33.03125 40.09375 -30 C 41.894531 -26.96875 42.796875 -23.625 42.796875 -19.96875 C 42.796875 -16.300781 41.894531 -12.953125 40.09375 -9.921875 C 38.300781 -6.890625 35.910156 -4.476562 32.921875 -2.6875 C 29.941406 -0.894531 26.617188 0 22.953125 0 C 19.285156 0 15.9375 -0.894531 12.90625 -2.6875 C 9.875 -4.476562 7.460938 -6.890625 5.671875 -9.921875 C 3.878906 -12.953125 2.984375 -16.300781 2.984375 -19.96875 C 2.984375 -23.625 3.878906 -26.96875 5.671875 -30 C 7.460938 -33.03125 9.875 -35.441406 12.90625 -37.234375 C 15.9375 -39.023438 19.285156 -39.921875 22.953125 -39.921875 Z M 48.296875 -83.671875 C 53.472656 -83.429688 58.332031 -82.296875 62.875 -80.265625 C 67.414062 -78.234375 71.414062 -75.484375 74.875 -72.015625 C 78.34375 -68.546875 81.113281 -64.539062 83.1875 -60 C 85.257812 -55.457031 86.378906 -50.597656 86.546875 -45.421875 L 86.546875 -4.0625 C 86.546875 -2.945312 86.164062 -1.988281 85.40625 -1.1875 C 84.644531 -0.394531 83.707031 0 82.59375 0 L 50.6875 0 C 50.363281 0 50.003906 -0.078125 49.609375 -0.234375 C 49.441406 -0.234375 49.238281 -0.210938 49 -0.171875 C 48.769531 -0.140625 48.535156 -0.125 48.296875 -0.125 C 47.253906 -0.125 46.734375 -0.835938 46.734375 -2.265625 L 46.734375 -3.578125 C 46.734375 -3.816406 46.734375 -3.976562 46.734375 -4.0625 L 46.734375 -40.046875 C 46.648438 -41.078125 46.207031 -41.953125 45.40625 -42.671875 C 44.613281 -43.390625 43.703125 -43.75 42.671875 -43.75 L 6.9375 -43.75 C 7.007812 -43.75 6.96875 -43.75 6.8125 -43.75 L 5.140625 -43.75 C 3.703125 -43.75 2.984375 -44.304688 2.984375 -45.421875 C 2.984375 -45.742188 3.023438 -46.257812 3.109375 -46.96875 C 3.023438 -47.207031 2.984375 -47.488281 2.984375 -47.8125 L 2.984375 -79.609375 C 2.984375 -80.722656 3.378906 -81.675781 4.171875 -82.46875 C 4.972656 -83.269531 5.894531 -83.671875 6.9375 -83.671875 L 46.015625 -83.671875 C 46.015625 -83.671875 46.035156 -83.648438 46.078125 -83.609375 C 46.117188 -83.566406 46.179688 -83.546875 46.265625 -83.546875 L 47.9375 -83.546875 C 48.09375 -83.628906 48.210938 -83.671875 48.296875 -83.671875 Z M 48.296875 -83.671875 "/></g></g><g style="fill:#000000;fill-opacity:1;"><g transform="translate(287.060559, 320.625007)"><path style="stroke:none" d=""/></g></g><g style="fill:#000000;fill-opacity:1;"><g transform="translate(342.642611, 320.625007)"><path style="stroke:none" d=""/></g></g><g clip-rule="nonzero" clip-path="url(#183be1e856)"><g clip-rule="nonzero" clip-path="url(#c278865b9b)"><path style=" stroke:none;fill-rule:nonzero;fill:#000000;fill-opacity:1;" d="M 288.734375 236.859375 L 328.253906 236.859375 L 328.253906 320.222656 L 288.734375 320.222656 Z M 288.734375 236.859375 "/></g></g><g clip-rule="nonzero" clip-path="url(#f455d8a96f)"><g clip-rule="nonzero" clip-path="url(#662ad09598)"><path style=" stroke:none;fill-rule:nonzero;fill:#000000;fill-opacity:1;" d="M 331.867188 236.859375 L 357.742188 236.859375 L 357.742188 261.214844 L 331.867188 261.214844 Z M 331.867188 236.859375 "/></g></g><g clip-rule="nonzero" clip-path="url(#84833b35cd)"><g clip-rule="nonzero" clip-path="url(#a9d133579e)"><path style=" stroke:none;fill-rule:nonzero;fill:#000000;fill-opacity:1;" d="M 331.867188 266.382812 L 357.742188 266.382812 L 357.742188 290.734375 L 331.867188 290.734375 Z M 331.867188 266.382812 "/></g></g><g clip-rule="nonzero" clip-path="url(#8747df3f09)"><g clip-rule="nonzero" clip-path="url(#42838143ac)"><path style=" stroke:none;fill-rule:nonzero;fill:#000000;fill-opacity:1;" d="M 331.867188 295.902344 L 357.742188 295.902344 L 357.742188 320.257812 L 331.867188 320.257812 Z M 331.867188 295.902344 "/></g></g><g style="fill:#000000;fill-opacity:1;"><g transform="translate(363.976537, 320.625007)"><path style="stroke:none" d="M 46.734375 -63.703125 C 46.734375 -67.367188 47.628906 -70.71875 49.421875 -73.75 C 51.210938 -76.78125 53.625 -79.191406 56.65625 -80.984375 C 59.6875 -82.773438 63.035156 -83.671875 66.703125 -83.671875 C 70.367188 -83.671875 73.710938 -82.773438 76.734375 -80.984375 C 79.765625 -79.191406 82.175781 -76.78125 83.96875 -73.75 C 85.757812 -70.71875 86.65625 -67.367188 86.65625 -63.703125 C 86.65625 -60.046875 85.757812 -56.722656 83.96875 -53.734375 C 82.175781 -50.742188 79.765625 -48.351562 76.734375 -46.5625 C 73.710938 -44.769531 70.367188 -43.875 66.703125 -43.875 C 63.035156 -43.875 59.6875 -44.769531 56.65625 -46.5625 C 53.625 -48.351562 51.210938 -50.742188 49.421875 -53.734375 C 47.628906 -56.722656 46.734375 -60.046875 46.734375 -63.703125 Z M 42.796875 -45.90625 C 42.796875 -45.820312 42.796875 -45.660156 42.796875 -45.421875 L 42.796875 -3.9375 C 42.796875 -2.90625 42.414062 -1.988281 41.65625 -1.1875 C 40.894531 -0.394531 39.957031 0 38.84375 0 L 6.9375 0 C 5.894531 0 4.972656 -0.394531 4.171875 -1.1875 C 3.378906 -1.988281 2.984375 -2.90625 2.984375 -3.9375 L 2.984375 -81.515625 C 2.984375 -82.953125 3.503906 -83.671875 4.546875 -83.671875 C 9.722656 -83.429688 14.5625 -82.316406 19.0625 -80.328125 C 23.5625 -78.335938 27.546875 -75.628906 31.015625 -72.203125 C 34.484375 -68.773438 37.253906 -64.804688 39.328125 -60.296875 C 41.398438 -55.796875 42.554688 -51 42.796875 -45.90625 Z M 46.859375 -4.65625 L 46.859375 -35.140625 C 46.859375 -36.492188 47.316406 -37.585938 48.234375 -38.421875 C 49.148438 -39.265625 50.222656 -39.722656 51.453125 -39.796875 C 52.691406 -39.878906 53.789062 -39.441406 54.75 -38.484375 L 85.21875 -7.890625 C 86.175781 -6.929688 86.632812 -5.832031 86.59375 -4.59375 C 86.5625 -3.363281 86.125 -2.289062 85.28125 -1.375 C 84.445312 -0.457031 83.351562 0 82 0 L 51.515625 0 C 50.242188 0 49.148438 -0.457031 48.234375 -1.375 C 47.316406 -2.289062 46.859375 -3.382812 46.859375 -4.65625 Z M 46.859375 -4.65625 "/></g></g><g style="fill:#000000;fill-opacity:1;"><g transform="translate(454.581239, 320.625007)"><path style="stroke:none" d="M 38.84375 -83.671875 C 39.957031 -83.671875 40.894531 -83.269531 41.65625 -82.46875 C 42.414062 -81.675781 42.796875 -80.765625 42.796875 -79.734375 L 42.796875 -3.9375 C 42.796875 -2.90625 42.414062 -1.988281 41.65625 -1.1875 C 40.894531 -0.394531 39.957031 0 38.84375 0 L 6.9375 0 C 5.894531 0 4.972656 -0.394531 4.171875 -1.1875 C 3.378906 -1.988281 2.984375 -2.90625 2.984375 -3.9375 L 2.984375 -79.734375 C 2.984375 -80.765625 3.378906 -81.675781 4.171875 -82.46875 C 4.972656 -83.269531 5.894531 -83.671875 6.9375 -83.671875 Z M 86.65625 -45.90625 C 86.65625 -45.820312 86.65625 -45.660156 86.65625 -45.421875 L 86.65625 -3.9375 C 86.65625 -2.90625 86.273438 -1.988281 85.515625 -1.1875 C 84.765625 -0.394531 83.832031 0 82.71875 0 L 50.796875 0 C 49.679688 0 48.742188 -0.394531 47.984375 -1.1875 C 47.234375 -1.988281 46.859375 -2.90625 46.859375 -3.9375 L 46.859375 -81.515625 C 46.859375 -82.953125 47.375 -83.671875 48.40625 -83.671875 C 53.582031 -83.429688 58.421875 -82.316406 62.921875 -80.328125 C 67.429688 -78.335938 71.414062 -75.628906 74.875 -72.203125 C 78.34375 -68.773438 81.113281 -64.804688 83.1875 -60.296875 C 85.257812 -55.796875 86.414062 -51 86.65625 -45.90625 Z M 86.65625 -45.90625 "/></g></g><g style="fill:#000000;fill-opacity:1;"><g transform="translate(545.305463, 320.625007)"><path style="stroke:none" d="M 38.84375 -83.671875 C 39.957031 -83.671875 40.894531 -83.269531 41.65625 -82.46875 C 42.414062 -81.675781 42.796875 -80.765625 42.796875 -79.734375 L 42.796875 -3.9375 C 42.796875 -2.90625 42.414062 -1.988281 41.65625 -1.1875 C 40.894531 -0.394531 39.957031 0 38.84375 0 L 6.9375 0 C 5.894531 0 4.972656 -0.394531 4.171875 -1.1875 C 3.378906 -1.988281 2.984375 -2.90625 2.984375 -3.9375 L 2.984375 -79.734375 C 2.984375 -80.765625 3.378906 -81.675781 4.171875 -82.46875 C 4.972656 -83.269531 5.894531 -83.671875 6.9375 -83.671875 Z M 38.84375 -83.671875 "/></g></g><g style="fill:#000000;fill-opacity:1;"><g transform="translate(592.161739, 320.625007)"><path style="stroke:none" d="M 28.921875 -39.796875 L 60.71875 -39.796875 C 61.832031 -39.796875 62.785156 -39.414062 63.578125 -38.65625 C 64.378906 -37.90625 64.78125 -36.972656 64.78125 -35.859375 L 64.78125 -3.9375 C 64.78125 -2.90625 64.378906 -1.988281 63.578125 -1.1875 C 62.785156 -0.394531 61.832031 0 60.71875 0 L 28.921875 0 C 27.804688 0 26.847656 -0.394531 26.046875 -1.1875 C 25.253906 -1.988281 24.859375 -2.90625 24.859375 -3.9375 L 24.859375 -35.859375 C 24.859375 -36.972656 25.253906 -37.90625 26.046875 -38.65625 C 26.847656 -39.414062 27.804688 -39.796875 28.921875 -39.796875 Z M 2.984375 -79.734375 C 2.984375 -80.765625 3.378906 -81.675781 4.171875 -82.46875 C 4.972656 -83.269531 5.894531 -83.671875 6.9375 -83.671875 L 82.71875 -83.671875 C 83.75 -83.671875 84.660156 -83.269531 85.453125 -82.46875 C 86.253906 -81.675781 86.65625 -80.765625 86.65625 -79.734375 L 86.65625 -47.8125 C 86.65625 -46.695312 86.253906 -45.757812 85.453125 -45 C 84.660156 -44.25 83.75 -43.875 82.71875 -43.875 L 6.9375 -43.875 C 5.894531 -43.875 4.972656 -44.25 4.171875 -45 C 3.378906 -45.757812 2.984375 -46.695312 2.984375 -47.8125 Z M 2.984375 -79.734375 "/></g></g></g></svg>